<svg width="860" height="390" viewBox="0 0 860 390" fill="none" xmlns="http://www.w3.org/2000/svg" role="img" aria-labelledby="title desc">
  <title id="title">Professional GitHub activity for carlosmartins19</title>
  <desc id="desc">Aggregated GitHub contribution metrics for the last 12 months. Repository names and private details are not disclosed.</desc>

  <rect width="860" height="390" rx="18" fill="#f6f8fa"/>
  <rect x="1" y="1" width="858" height="388" rx="17" stroke="#d8dee4"/>

  <text x="32" y="44" font-family="-apple-system,BlinkMacSystemFont,Segoe UI,Helvetica,Arial,sans-serif" font-size="22" font-weight="700" fill="#24292f">Professional GitHub Activity</text>
  <text x="32" y="70" font-family="-apple-system,BlinkMacSystemFont,Segoe UI,Helvetica,Arial,sans-serif" font-size="13" fill="#57606a">Aggregated contribution data from the last 12 months</text>
  <text x="32" y="92" font-family="-apple-system,BlinkMacSystemFont,Segoe UI,Helvetica,Arial,sans-serif" font-size="12" fill="#6e7781">Repository names, branches, commit messages and proprietary details are not disclosed.</text>

  <g font-family="-apple-system,BlinkMacSystemFont,Segoe UI,Helvetica,Arial,sans-serif">
    
    <g>
      <rect x="32" y="118" width="164" height="74" rx="12" fill="#ffffff" stroke="#d8dee4"/>
      <text x="50" y="148" font-size="13" fill="#57606a">Total contributions</text>
      <text x="50" y="176" font-size="28" font-weight="700" fill="#24292f">796</text>
    </g>
    
    <g>
      <rect x="212" y="118" width="164" height="74" rx="12" fill="#ffffff" stroke="#d8dee4"/>
      <text x="230" y="148" font-size="13" fill="#57606a">Commits</text>
      <text x="230" y="176" font-size="28" font-weight="700" fill="#24292f">607</text>
    </g>
    
    <g>
      <rect x="392" y="118" width="164" height="74" rx="12" fill="#ffffff" stroke="#d8dee4"/>
      <text x="410" y="148" font-size="13" fill="#57606a">Pull requests</text>
      <text x="410" y="176" font-size="28" font-weight="700" fill="#24292f">152</text>
    </g>
    
    <g>
      <rect x="572" y="118" width="164" height="74" rx="12" fill="#ffffff" stroke="#d8dee4"/>
      <text x="590" y="148" font-size="13" fill="#57606a">Reviews</text>
      <text x="590" y="176" font-size="28" font-weight="700" fill="#24292f">34</text>
    </g>
  </g>

  <g font-family="-apple-system,BlinkMacSystemFont,Segoe UI,Helvetica,Arial,sans-serif">
    <text x="32" y="224" font-size="13" font-weight="600" fill="#24292f">Contribution calendar</text>
    <rect x="32" y="238" width="11" height="11" rx="2" fill="#ebedf0"><title>2025-07-06: 0 contributions</title></rect><rect x="32" y="252" width="11" height="11" rx="2" fill="#40c463"><title>2025-07-07: 9 contributions</title></rect><rect x="32" y="266" width="11" height="11" rx="2" fill="#9be9a8"><title>2025-07-08: 4 contributions</title></rect><rect x="32" y="280" width="11" height="11" rx="2" fill="#40c463"><title>2025-07-09: 8 contributions</title></rect><rect x="32" y="294" width="11" height="11" rx="2" fill="#9be9a8"><title>2025-07-10: 2 contributions</title></rect><rect x="32" y="308" width="11" height="11" rx="2" fill="#40c463"><title>2025-07-11: 8 contributions</title></rect><rect x="32" y="322" width="11" height="11" rx="2" fill="#9be9a8"><title>2025-07-12: 1 contributions</title></rect><rect x="46" y="238" width="11" height="11" rx="2" fill="#ebedf0"><title>2025-07-13: 0 contributions</title></rect><rect x="46" y="252" width="11" height="11" rx="2" fill="#30a14e"><title>2025-07-14: 17 contributions</title></rect><rect x="46" y="266" width="11" height="11" rx="2" fill="#9be9a8"><title>2025-07-15: 6 contributions</title></rect><rect x="46" y="280" width="11" height="11" rx="2" fill="#9be9a8"><title>2025-07-16: 5 contributions</title></rect><rect x="46" y="294" width="11" height="11" rx="2" fill="#9be9a8"><title>2025-07-17: 2 contributions</title></rect><rect x="46" y="308" width="11" height="11" rx="2" fill="#9be9a8"><title>2025-07-18: 3 contributions</title></rect><rect x="46" y="322" width="11" height="11" rx="2" fill="#ebedf0"><title>2025-07-19: 0 contributions</title></rect><rect x="60" y="238" width="11" height="11" rx="2" fill="#ebedf0"><title>2025-07-20: 0 contributions</title></rect><rect x="60" y="252" width="11" height="11" rx="2" fill="#ebedf0"><title>2025-07-21: 0 contributions</title></rect><rect x="60" y="266" width="11" height="11" rx="2" fill="#ebedf0"><title>2025-07-22: 0 contributions</title></rect><rect x="60" y="280" width="11" height="11" rx="2" fill="#9be9a8"><title>2025-07-23: 3 contributions</title></rect><rect x="60" y="294" width="11" height="11" rx="2" fill="#9be9a8"><title>2025-07-24: 1 contributions</title></rect><rect x="60" y="308" width="11" height="11" rx="2" fill="#ebedf0"><title>2025-07-25: 0 contributions</title></rect><rect x="60" y="322" width="11" height="11" rx="2" fill="#ebedf0"><title>2025-07-26: 0 contributions</title></rect><rect x="74" y="238" width="11" height="11" rx="2" fill="#ebedf0"><title>2025-07-27: 0 contributions</title></rect><rect x="74" y="252" width="11" height="11" rx="2" fill="#9be9a8"><title>2025-07-28: 2 contributions</title></rect><rect x="74" y="266" width="11" height="11" rx="2" fill="#40c463"><title>2025-07-29: 7 contributions</title></rect><rect x="74" y="280" width="11" height="11" rx="2" fill="#9be9a8"><title>2025-07-30: 2 contributions</title></rect><rect x="74" y="294" width="11" height="11" rx="2" fill="#ebedf0"><title>2025-07-31: 0 contributions</title></rect><rect x="74" y="308" width="11" height="11" rx="2" fill="#ebedf0"><title>2025-08-01: 0 contributions</title></rect><rect x="74" y="322" width="11" height="11" rx="2" fill="#ebedf0"><title>2025-08-02: 0 contributions</title></rect><rect x="88" y="238" width="11" height="11" rx="2" fill="#ebedf0"><title>2025-08-03: 0 contributions</title></rect><rect x="88" y="252" width="11" height="11" rx="2" fill="#9be9a8"><title>2025-08-04: 3 contributions</title></rect><rect x="88" y="266" width="11" height="11" rx="2" fill="#9be9a8"><title>2025-08-05: 4 contributions</title></rect><rect x="88" y="280" width="11" height="11" rx="2" fill="#9be9a8"><title>2025-08-06: 4 contributions</title></rect><rect x="88" y="294" width="11" height="11" rx="2" fill="#9be9a8"><title>2025-08-07: 4 contributions</title></rect><rect x="88" y="308" width="11" height="11" rx="2" fill="#ebedf0"><title>2025-08-08: 0 contributions</title></rect><rect x="88" y="322" width="11" height="11" rx="2" fill="#9be9a8"><title>2025-08-09: 1 contributions</title></rect><rect x="102" y="238" width="11" height="11" rx="2" fill="#ebedf0"><title>2025-08-10: 0 contributions</title></rect><rect x="102" y="252" width="11" height="11" rx="2" fill="#40c463"><title>2025-08-11: 7 contributions</title></rect><rect x="102" y="266" width="11" height="11" rx="2" fill="#9be9a8"><title>2025-08-12: 4 contributions</title></rect><rect x="102" y="280" width="11" height="11" rx="2" fill="#9be9a8"><title>2025-08-13: 5 contributions</title></rect><rect x="102" y="294" width="11" height="11" rx="2" fill="#ebedf0"><title>2025-08-14: 0 contributions</title></rect><rect x="102" y="308" width="11" height="11" rx="2" fill="#9be9a8"><title>2025-08-15: 2 contributions</title></rect><rect x="102" y="322" width="11" height="11" rx="2" fill="#ebedf0"><title>2025-08-16: 0 contributions</title></rect><rect x="116" y="238" width="11" height="11" rx="2" fill="#ebedf0"><title>2025-08-17: 0 contributions</title></rect><rect x="116" y="252" width="11" height="11" rx="2" fill="#ebedf0"><title>2025-08-18: 0 contributions</title></rect><rect x="116" y="266" width="11" height="11" rx="2" fill="#9be9a8"><title>2025-08-19: 4 contributions</title></rect><rect x="116" y="280" width="11" height="11" rx="2" fill="#9be9a8"><title>2025-08-20: 6 contributions</title></rect><rect x="116" y="294" width="11" height="11" rx="2" fill="#ebedf0"><title>2025-08-21: 0 contributions</title></rect><rect x="116" y="308" width="11" height="11" rx="2" fill="#9be9a8"><title>2025-08-22: 3 contributions</title></rect><rect x="116" y="322" width="11" height="11" rx="2" fill="#ebedf0"><title>2025-08-23: 0 contributions</title></rect><rect x="130" y="238" width="11" height="11" rx="2" fill="#ebedf0"><title>2025-08-24: 0 contributions</title></rect><rect x="130" y="252" width="11" height="11" rx="2" fill="#ebedf0"><title>2025-08-25: 0 contributions</title></rect><rect x="130" y="266" width="11" height="11" rx="2" fill="#9be9a8"><title>2025-08-26: 1 contributions</title></rect><rect x="130" y="280" width="11" height="11" rx="2" fill="#ebedf0"><title>2025-08-27: 0 contributions</title></rect><rect x="130" y="294" width="11" height="11" rx="2" fill="#ebedf0"><title>2025-08-28: 0 contributions</title></rect><rect x="130" y="308" width="11" height="11" rx="2" fill="#ebedf0"><title>2025-08-29: 0 contributions</title></rect><rect x="130" y="322" width="11" height="11" rx="2" fill="#ebedf0"><title>2025-08-30: 0 contributions</title></rect><rect x="144" y="238" width="11" height="11" rx="2" fill="#ebedf0"><title>2025-08-31: 0 contributions</title></rect><rect x="144" y="252" width="11" height="11" rx="2" fill="#ebedf0"><title>2025-09-01: 0 contributions</title></rect><rect x="144" y="266" width="11" height="11" rx="2" fill="#ebedf0"><title>2025-09-02: 0 contributions</title></rect><rect x="144" y="280" width="11" height="11" rx="2" fill="#ebedf0"><title>2025-09-03: 0 contributions</title></rect><rect x="144" y="294" width="11" height="11" rx="2" fill="#ebedf0"><title>2025-09-04: 0 contributions</title></rect><rect x="144" y="308" width="11" height="11" rx="2" fill="#ebedf0"><title>2025-09-05: 0 contributions</title></rect><rect x="144" y="322" width="11" height="11" rx="2" fill="#ebedf0"><title>2025-09-06: 0 contributions</title></rect><rect x="158" y="238" width="11" height="11" rx="2" fill="#ebedf0"><title>2025-09-07: 0 contributions</title></rect><rect x="158" y="252" width="11" height="11" rx="2" fill="#9be9a8"><title>2025-09-08: 2 contributions</title></rect><rect x="158" y="266" width="11" height="11" rx="2" fill="#40c463"><title>2025-09-09: 8 contributions</title></rect><rect x="158" y="280" width="11" height="11" rx="2" fill="#9be9a8"><title>2025-09-10: 2 contributions</title></rect><rect x="158" y="294" width="11" height="11" rx="2" fill="#9be9a8"><title>2025-09-11: 2 contributions</title></rect><rect x="158" y="308" width="11" height="11" rx="2" fill="#ebedf0"><title>2025-09-12: 0 contributions</title></rect><rect x="158" y="322" width="11" height="11" rx="2" fill="#ebedf0"><title>2025-09-13: 0 contributions</title></rect><rect x="172" y="238" width="11" height="11" rx="2" fill="#ebedf0"><title>2025-09-14: 0 contributions</title></rect><rect x="172" y="252" width="11" height="11" rx="2" fill="#ebedf0"><title>2025-09-15: 0 contributions</title></rect><rect x="172" y="266" width="11" height="11" rx="2" fill="#9be9a8"><title>2025-09-16: 1 contributions</title></rect><rect x="172" y="280" width="11" height="11" rx="2" fill="#9be9a8"><title>2025-09-17: 2 contributions</title></rect><rect x="172" y="294" width="11" height="11" rx="2" fill="#9be9a8"><title>2025-09-18: 1 contributions</title></rect><rect x="172" y="308" width="11" height="11" rx="2" fill="#9be9a8"><title>2025-09-19: 1 contributions</title></rect><rect x="172" y="322" width="11" height="11" rx="2" fill="#ebedf0"><title>2025-09-20: 0 contributions</title></rect><rect x="186" y="238" width="11" height="11" rx="2" fill="#ebedf0"><title>2025-09-21: 0 contributions</title></rect><rect x="186" y="252" width="11" height="11" rx="2" fill="#9be9a8"><title>2025-09-22: 2 contributions</title></rect><rect x="186" y="266" width="11" height="11" rx="2" fill="#9be9a8"><title>2025-09-23: 3 contributions</title></rect><rect x="186" y="280" width="11" height="11" rx="2" fill="#ebedf0"><title>2025-09-24: 0 contributions</title></rect><rect x="186" y="294" width="11" height="11" rx="2" fill="#9be9a8"><title>2025-09-25: 2 contributions</title></rect><rect x="186" y="308" width="11" height="11" rx="2" fill="#9be9a8"><title>2025-09-26: 5 contributions</title></rect><rect x="186" y="322" width="11" height="11" rx="2" fill="#ebedf0"><title>2025-09-27: 0 contributions</title></rect><rect x="200" y="238" width="11" height="11" rx="2" fill="#ebedf0"><title>2025-09-28: 0 contributions</title></rect><rect x="200" y="252" width="11" height="11" rx="2" fill="#9be9a8"><title>2025-09-29: 4 contributions</title></rect><rect x="200" y="266" width="11" height="11" rx="2" fill="#9be9a8"><title>2025-09-30: 1 contributions</title></rect><rect x="200" y="280" width="11" height="11" rx="2" fill="#9be9a8"><title>2025-10-01: 1 contributions</title></rect><rect x="200" y="294" width="11" height="11" rx="2" fill="#ebedf0"><title>2025-10-02: 0 contributions</title></rect><rect x="200" y="308" width="11" height="11" rx="2" fill="#ebedf0"><title>2025-10-03: 0 contributions</title></rect><rect x="200" y="322" width="11" height="11" rx="2" fill="#ebedf0"><title>2025-10-04: 0 contributions</title></rect><rect x="214" y="238" width="11" height="11" rx="2" fill="#ebedf0"><title>2025-10-05: 0 contributions</title></rect><rect x="214" y="252" width="11" height="11" rx="2" fill="#9be9a8"><title>2025-10-06: 5 contributions</title></rect><rect x="214" y="266" width="11" height="11" rx="2" fill="#9be9a8"><title>2025-10-07: 2 contributions</title></rect><rect x="214" y="280" width="11" height="11" rx="2" fill="#ebedf0"><title>2025-10-08: 0 contributions</title></rect><rect x="214" y="294" width="11" height="11" rx="2" fill="#ebedf0"><title>2025-10-09: 0 contributions</title></rect><rect x="214" y="308" width="11" height="11" rx="2" fill="#9be9a8"><title>2025-10-10: 1 contributions</title></rect><rect x="214" y="322" width="11" height="11" rx="2" fill="#ebedf0"><title>2025-10-11: 0 contributions</title></rect><rect x="228" y="238" width="11" height="11" rx="2" fill="#ebedf0"><title>2025-10-12: 0 contributions</title></rect><rect x="228" y="252" width="11" height="11" rx="2" fill="#9be9a8"><title>2025-10-13: 1 contributions</title></rect><rect x="228" y="266" width="11" height="11" rx="2" fill="#40c463"><title>2025-10-14: 11 contributions</title></rect><rect x="228" y="280" width="11" height="11" rx="2" fill="#9be9a8"><title>2025-10-15: 2 contributions</title></rect><rect x="228" y="294" width="11" height="11" rx="2" fill="#9be9a8"><title>2025-10-16: 4 contributions</title></rect><rect x="228" y="308" width="11" height="11" rx="2" fill="#9be9a8"><title>2025-10-17: 3 contributions</title></rect><rect x="228" y="322" width="11" height="11" rx="2" fill="#ebedf0"><title>2025-10-18: 0 contributions</title></rect><rect x="242" y="238" width="11" height="11" rx="2" fill="#ebedf0"><title>2025-10-19: 0 contributions</title></rect><rect x="242" y="252" width="11" height="11" rx="2" fill="#9be9a8"><title>2025-10-20: 2 contributions</title></rect><rect x="242" y="266" width="11" height="11" rx="2" fill="#9be9a8"><title>2025-10-21: 6 contributions</title></rect><rect x="242" y="280" width="11" height="11" rx="2" fill="#9be9a8"><title>2025-10-22: 1 contributions</title></rect><rect x="242" y="294" width="11" height="11" rx="2" fill="#ebedf0"><title>2025-10-23: 0 contributions</title></rect><rect x="242" y="308" width="11" height="11" rx="2" fill="#ebedf0"><title>2025-10-24: 0 contributions</title></rect><rect x="242" y="322" width="11" height="11" rx="2" fill="#ebedf0"><title>2025-10-25: 0 contributions</title></rect><rect x="256" y="238" width="11" height="11" rx="2" fill="#ebedf0"><title>2025-10-26: 0 contributions</title></rect><rect x="256" y="252" width="11" height="11" rx="2" fill="#9be9a8"><title>2025-10-27: 3 contributions</title></rect><rect x="256" y="266" width="11" height="11" rx="2" fill="#9be9a8"><title>2025-10-28: 5 contributions</title></rect><rect x="256" y="280" width="11" height="11" rx="2" fill="#9be9a8"><title>2025-10-29: 1 contributions</title></rect><rect x="256" y="294" width="11" height="11" rx="2" fill="#9be9a8"><title>2025-10-30: 4 contributions</title></rect><rect x="256" y="308" width="11" height="11" rx="2" fill="#9be9a8"><title>2025-10-31: 4 contributions</title></rect><rect x="256" y="322" width="11" height="11" rx="2" fill="#ebedf0"><title>2025-11-01: 0 contributions</title></rect><rect x="270" y="238" width="11" height="11" rx="2" fill="#ebedf0"><title>2025-11-02: 0 contributions</title></rect><rect x="270" y="252" width="11" height="11" rx="2" fill="#9be9a8"><title>2025-11-03: 1 contributions</title></rect><rect x="270" y="266" width="11" height="11" rx="2" fill="#40c463"><title>2025-11-04: 9 contributions</title></rect><rect x="270" y="280" width="11" height="11" rx="2" fill="#9be9a8"><title>2025-11-05: 3 contributions</title></rect><rect x="270" y="294" width="11" height="11" rx="2" fill="#40c463"><title>2025-11-06: 11 contributions</title></rect><rect x="270" y="308" width="11" height="11" rx="2" fill="#40c463"><title>2025-11-07: 9 contributions</title></rect><rect x="270" y="322" width="11" height="11" rx="2" fill="#ebedf0"><title>2025-11-08: 0 contributions</title></rect><rect x="284" y="238" width="11" height="11" rx="2" fill="#ebedf0"><title>2025-11-09: 0 contributions</title></rect><rect x="284" y="252" width="11" height="11" rx="2" fill="#9be9a8"><title>2025-11-10: 2 contributions</title></rect><rect x="284" y="266" width="11" height="11" rx="2" fill="#9be9a8"><title>2025-11-11: 6 contributions</title></rect><rect x="284" y="280" width="11" height="11" rx="2" fill="#ebedf0"><title>2025-11-12: 0 contributions</title></rect><rect x="284" y="294" width="11" height="11" rx="2" fill="#9be9a8"><title>2025-11-13: 4 contributions</title></rect><rect x="284" y="308" width="11" height="11" rx="2" fill="#ebedf0"><title>2025-11-14: 0 contributions</title></rect><rect x="284" y="322" width="11" height="11" rx="2" fill="#ebedf0"><title>2025-11-15: 0 contributions</title></rect><rect x="298" y="238" width="11" height="11" rx="2" fill="#ebedf0"><title>2025-11-16: 0 contributions</title></rect><rect x="298" y="252" width="11" height="11" rx="2" fill="#9be9a8"><title>2025-11-17: 5 contributions</title></rect><rect x="298" y="266" width="11" height="11" rx="2" fill="#9be9a8"><title>2025-11-18: 5 contributions</title></rect><rect x="298" y="280" width="11" height="11" rx="2" fill="#9be9a8"><title>2025-11-19: 5 contributions</title></rect><rect x="298" y="294" width="11" height="11" rx="2" fill="#40c463"><title>2025-11-20: 8 contributions</title></rect><rect x="298" y="308" width="11" height="11" rx="2" fill="#9be9a8"><title>2025-11-21: 5 contributions</title></rect><rect x="298" y="322" width="11" height="11" rx="2" fill="#ebedf0"><title>2025-11-22: 0 contributions</title></rect><rect x="312" y="238" width="11" height="11" rx="2" fill="#ebedf0"><title>2025-11-23: 0 contributions</title></rect><rect x="312" y="252" width="11" height="11" rx="2" fill="#ebedf0"><title>2025-11-24: 0 contributions</title></rect><rect x="312" y="266" width="11" height="11" rx="2" fill="#ebedf0"><title>2025-11-25: 0 contributions</title></rect><rect x="312" y="280" width="11" height="11" rx="2" fill="#ebedf0"><title>2025-11-26: 0 contributions</title></rect><rect x="312" y="294" width="11" height="11" rx="2" fill="#ebedf0"><title>2025-11-27: 0 contributions</title></rect><rect x="312" y="308" width="11" height="11" rx="2" fill="#9be9a8"><title>2025-11-28: 2 contributions</title></rect><rect x="312" y="322" width="11" height="11" rx="2" fill="#ebedf0"><title>2025-11-29: 0 contributions</title></rect><rect x="326" y="238" width="11" height="11" rx="2" fill="#ebedf0"><title>2025-11-30: 0 contributions</title></rect><rect x="326" y="252" width="11" height="11" rx="2" fill="#ebedf0"><title>2025-12-01: 0 contributions</title></rect><rect x="326" y="266" width="11" height="11" rx="2" fill="#9be9a8"><title>2025-12-02: 6 contributions</title></rect><rect x="326" y="280" width="11" height="11" rx="2" fill="#9be9a8"><title>2025-12-03: 2 contributions</title></rect><rect x="326" y="294" width="11" height="11" rx="2" fill="#40c463"><title>2025-12-04: 9 contributions</title></rect><rect x="326" y="308" width="11" height="11" rx="2" fill="#9be9a8"><title>2025-12-05: 5 contributions</title></rect><rect x="326" y="322" width="11" height="11" rx="2" fill="#ebedf0"><title>2025-12-06: 0 contributions</title></rect><rect x="340" y="238" width="11" height="11" rx="2" fill="#ebedf0"><title>2025-12-07: 0 contributions</title></rect><rect x="340" y="252" width="11" height="11" rx="2" fill="#ebedf0"><title>2025-12-08: 0 contributions</title></rect><rect x="340" y="266" width="11" height="11" rx="2" fill="#30a14e"><title>2025-12-09: 14 contributions</title></rect><rect x="340" y="280" width="11" height="11" rx="2" fill="#40c463"><title>2025-12-10: 7 contributions</title></rect><rect x="340" y="294" width="11" height="11" rx="2" fill="#9be9a8"><title>2025-12-11: 4 contributions</title></rect><rect x="340" y="308" width="11" height="11" rx="2" fill="#9be9a8"><title>2025-12-12: 2 contributions</title></rect><rect x="340" y="322" width="11" height="11" rx="2" fill="#ebedf0"><title>2025-12-13: 0 contributions</title></rect><rect x="354" y="238" width="11" height="11" rx="2" fill="#ebedf0"><title>2025-12-14: 0 contributions</title></rect><rect x="354" y="252" width="11" height="11" rx="2" fill="#9be9a8"><title>2025-12-15: 1 contributions</title></rect><rect x="354" y="266" width="11" height="11" rx="2" fill="#ebedf0"><title>2025-12-16: 0 contributions</title></rect><rect x="354" y="280" width="11" height="11" rx="2" fill="#9be9a8"><title>2025-12-17: 6 contributions</title></rect><rect x="354" y="294" width="11" height="11" rx="2" fill="#ebedf0"><title>2025-12-18: 0 contributions</title></rect><rect x="354" y="308" width="11" height="11" rx="2" fill="#9be9a8"><title>2025-12-19: 2 contributions</title></rect><rect x="354" y="322" width="11" height="11" rx="2" fill="#ebedf0"><title>2025-12-20: 0 contributions</title></rect><rect x="368" y="238" width="11" height="11" rx="2" fill="#ebedf0"><title>2025-12-21: 0 contributions</title></rect><rect x="368" y="252" width="11" height="11" rx="2" fill="#ebedf0"><title>2025-12-22: 0 contributions</title></rect><rect x="368" y="266" width="11" height="11" rx="2" fill="#ebedf0"><title>2025-12-23: 0 contributions</title></rect><rect x="368" y="280" width="11" height="11" rx="2" fill="#ebedf0"><title>2025-12-24: 0 contributions</title></rect><rect x="368" y="294" width="11" height="11" rx="2" fill="#ebedf0"><title>2025-12-25: 0 contributions</title></rect><rect x="368" y="308" width="11" height="11" rx="2" fill="#ebedf0"><title>2025-12-26: 0 contributions</title></rect><rect x="368" y="322" width="11" height="11" rx="2" fill="#ebedf0"><title>2025-12-27: 0 contributions</title></rect><rect x="382" y="238" width="11" height="11" rx="2" fill="#ebedf0"><title>2025-12-28: 0 contributions</title></rect><rect x="382" y="252" width="11" height="11" rx="2" fill="#ebedf0"><title>2025-12-29: 0 contributions</title></rect><rect x="382" y="266" width="11" height="11" rx="2" fill="#ebedf0"><title>2025-12-30: 0 contributions</title></rect><rect x="382" y="280" width="11" height="11" rx="2" fill="#ebedf0"><title>2025-12-31: 0 contributions</title></rect><rect x="382" y="294" width="11" height="11" rx="2" fill="#ebedf0"><title>2026-01-01: 0 contributions</title></rect><rect x="382" y="308" width="11" height="11" rx="2" fill="#ebedf0"><title>2026-01-02: 0 contributions</title></rect><rect x="382" y="322" width="11" height="11" rx="2" fill="#ebedf0"><title>2026-01-03: 0 contributions</title></rect><rect x="396" y="238" width="11" height="11" rx="2" fill="#ebedf0"><title>2026-01-04: 0 contributions</title></rect><rect x="396" y="252" width="11" height="11" rx="2" fill="#9be9a8"><title>2026-01-05: 6 contributions</title></rect><rect x="396" y="266" width="11" height="11" rx="2" fill="#9be9a8"><title>2026-01-06: 4 contributions</title></rect><rect x="396" y="280" width="11" height="11" rx="2" fill="#9be9a8"><title>2026-01-07: 3 contributions</title></rect><rect x="396" y="294" width="11" height="11" rx="2" fill="#40c463"><title>2026-01-08: 7 contributions</title></rect><rect x="396" y="308" width="11" height="11" rx="2" fill="#ebedf0"><title>2026-01-09: 0 contributions</title></rect><rect x="396" y="322" width="11" height="11" rx="2" fill="#ebedf0"><title>2026-01-10: 0 contributions</title></rect><rect x="410" y="238" width="11" height="11" rx="2" fill="#ebedf0"><title>2026-01-11: 0 contributions</title></rect><rect x="410" y="252" width="11" height="11" rx="2" fill="#9be9a8"><title>2026-01-12: 5 contributions</title></rect><rect x="410" y="266" width="11" height="11" rx="2" fill="#30a14e"><title>2026-01-13: 13 contributions</title></rect><rect x="410" y="280" width="11" height="11" rx="2" fill="#9be9a8"><title>2026-01-14: 5 contributions</title></rect><rect x="410" y="294" width="11" height="11" rx="2" fill="#40c463"><title>2026-01-15: 11 contributions</title></rect><rect x="410" y="308" width="11" height="11" rx="2" fill="#9be9a8"><title>2026-01-16: 1 contributions</title></rect><rect x="410" y="322" width="11" height="11" rx="2" fill="#ebedf0"><title>2026-01-17: 0 contributions</title></rect><rect x="424" y="238" width="11" height="11" rx="2" fill="#ebedf0"><title>2026-01-18: 0 contributions</title></rect><rect x="424" y="252" width="11" height="11" rx="2" fill="#30a14e"><title>2026-01-19: 14 contributions</title></rect><rect x="424" y="266" width="11" height="11" rx="2" fill="#9be9a8"><title>2026-01-20: 2 contributions</title></rect><rect x="424" y="280" width="11" height="11" rx="2" fill="#9be9a8"><title>2026-01-21: 4 contributions</title></rect><rect x="424" y="294" width="11" height="11" rx="2" fill="#9be9a8"><title>2026-01-22: 6 contributions</title></rect><rect x="424" y="308" width="11" height="11" rx="2" fill="#ebedf0"><title>2026-01-23: 0 contributions</title></rect><rect x="424" y="322" width="11" height="11" rx="2" fill="#ebedf0"><title>2026-01-24: 0 contributions</title></rect><rect x="438" y="238" width="11" height="11" rx="2" fill="#ebedf0"><title>2026-01-25: 0 contributions</title></rect><rect x="438" y="252" width="11" height="11" rx="2" fill="#9be9a8"><title>2026-01-26: 1 contributions</title></rect><rect x="438" y="266" width="11" height="11" rx="2" fill="#9be9a8"><title>2026-01-27: 4 contributions</title></rect><rect x="438" y="280" width="11" height="11" rx="2" fill="#9be9a8"><title>2026-01-28: 4 contributions</title></rect><rect x="438" y="294" width="11" height="11" rx="2" fill="#9be9a8"><title>2026-01-29: 3 contributions</title></rect><rect x="438" y="308" width="11" height="11" rx="2" fill="#ebedf0"><title>2026-01-30: 0 contributions</title></rect><rect x="438" y="322" width="11" height="11" rx="2" fill="#ebedf0"><title>2026-01-31: 0 contributions</title></rect><rect x="452" y="238" width="11" height="11" rx="2" fill="#ebedf0"><title>2026-02-01: 0 contributions</title></rect><rect x="452" y="252" width="11" height="11" rx="2" fill="#9be9a8"><title>2026-02-02: 6 contributions</title></rect><rect x="452" y="266" width="11" height="11" rx="2" fill="#9be9a8"><title>2026-02-03: 3 contributions</title></rect><rect x="452" y="280" width="11" height="11" rx="2" fill="#ebedf0"><title>2026-02-04: 0 contributions</title></rect><rect x="452" y="294" width="11" height="11" rx="2" fill="#9be9a8"><title>2026-02-05: 1 contributions</title></rect><rect x="452" y="308" width="11" height="11" rx="2" fill="#9be9a8"><title>2026-02-06: 3 contributions</title></rect><rect x="452" y="322" width="11" height="11" rx="2" fill="#ebedf0"><title>2026-02-07: 0 contributions</title></rect><rect x="466" y="238" width="11" height="11" rx="2" fill="#ebedf0"><title>2026-02-08: 0 contributions</title></rect><rect x="466" y="252" width="11" height="11" rx="2" fill="#9be9a8"><title>2026-02-09: 6 contributions</title></rect><rect x="466" y="266" width="11" height="11" rx="2" fill="#ebedf0"><title>2026-02-10: 0 contributions</title></rect><rect x="466" y="280" width="11" height="11" rx="2" fill="#ebedf0"><title>2026-02-11: 0 contributions</title></rect><rect x="466" y="294" width="11" height="11" rx="2" fill="#ebedf0"><title>2026-02-12: 0 contributions</title></rect><rect x="466" y="308" width="11" height="11" rx="2" fill="#9be9a8"><title>2026-02-13: 3 contributions</title></rect><rect x="466" y="322" width="11" height="11" rx="2" fill="#ebedf0"><title>2026-02-14: 0 contributions</title></rect><rect x="480" y="238" width="11" height="11" rx="2" fill="#ebedf0"><title>2026-02-15: 0 contributions</title></rect><rect x="480" y="252" width="11" height="11" rx="2" fill="#ebedf0"><title>2026-02-16: 0 contributions</title></rect><rect x="480" y="266" width="11" height="11" rx="2" fill="#ebedf0"><title>2026-02-17: 0 contributions</title></rect><rect x="480" y="280" width="11" height="11" rx="2" fill="#9be9a8"><title>2026-02-18: 5 contributions</title></rect><rect x="480" y="294" width="11" height="11" rx="2" fill="#9be9a8"><title>2026-02-19: 5 contributions</title></rect><rect x="480" y="308" width="11" height="11" rx="2" fill="#ebedf0"><title>2026-02-20: 0 contributions</title></rect><rect x="480" y="322" width="11" height="11" rx="2" fill="#ebedf0"><title>2026-02-21: 0 contributions</title></rect><rect x="494" y="238" width="11" height="11" rx="2" fill="#ebedf0"><title>2026-02-22: 0 contributions</title></rect><rect x="494" y="252" width="11" height="11" rx="2" fill="#9be9a8"><title>2026-02-23: 2 contributions</title></rect><rect x="494" y="266" width="11" height="11" rx="2" fill="#40c463"><title>2026-02-24: 9 contributions</title></rect><rect x="494" y="280" width="11" height="11" rx="2" fill="#9be9a8"><title>2026-02-25: 1 contributions</title></rect><rect x="494" y="294" width="11" height="11" rx="2" fill="#ebedf0"><title>2026-02-26: 0 contributions</title></rect><rect x="494" y="308" width="11" height="11" rx="2" fill="#ebedf0"><title>2026-02-27: 0 contributions</title></rect><rect x="494" y="322" width="11" height="11" rx="2" fill="#ebedf0"><title>2026-02-28: 0 contributions</title></rect><rect x="508" y="238" width="11" height="11" rx="2" fill="#ebedf0"><title>2026-03-01: 0 contributions</title></rect><rect x="508" y="252" width="11" height="11" rx="2" fill="#9be9a8"><title>2026-03-02: 2 contributions</title></rect><rect x="508" y="266" width="11" height="11" rx="2" fill="#9be9a8"><title>2026-03-03: 2 contributions</title></rect><rect x="508" y="280" width="11" height="11" rx="2" fill="#9be9a8"><title>2026-03-04: 4 contributions</title></rect><rect x="508" y="294" width="11" height="11" rx="2" fill="#30a14e"><title>2026-03-05: 13 contributions</title></rect><rect x="508" y="308" width="11" height="11" rx="2" fill="#ebedf0"><title>2026-03-06: 0 contributions</title></rect><rect x="508" y="322" width="11" height="11" rx="2" fill="#ebedf0"><title>2026-03-07: 0 contributions</title></rect><rect x="522" y="238" width="11" height="11" rx="2" fill="#ebedf0"><title>2026-03-08: 0 contributions</title></rect><rect x="522" y="252" width="11" height="11" rx="2" fill="#9be9a8"><title>2026-03-09: 3 contributions</title></rect><rect x="522" y="266" width="11" height="11" rx="2" fill="#ebedf0"><title>2026-03-10: 0 contributions</title></rect><rect x="522" y="280" width="11" height="11" rx="2" fill="#ebedf0"><title>2026-03-11: 0 contributions</title></rect><rect x="522" y="294" width="11" height="11" rx="2" fill="#ebedf0"><title>2026-03-12: 0 contributions</title></rect><rect x="522" y="308" width="11" height="11" rx="2" fill="#9be9a8"><title>2026-03-13: 2 contributions</title></rect><rect x="522" y="322" width="11" height="11" rx="2" fill="#ebedf0"><title>2026-03-14: 0 contributions</title></rect><rect x="536" y="238" width="11" height="11" rx="2" fill="#ebedf0"><title>2026-03-15: 0 contributions</title></rect><rect x="536" y="252" width="11" height="11" rx="2" fill="#ebedf0"><title>2026-03-16: 0 contributions</title></rect><rect x="536" y="266" width="11" height="11" rx="2" fill="#9be9a8"><title>2026-03-17: 5 contributions</title></rect><rect x="536" y="280" width="11" height="11" rx="2" fill="#40c463"><title>2026-03-18: 7 contributions</title></rect><rect x="536" y="294" width="11" height="11" rx="2" fill="#9be9a8"><title>2026-03-19: 1 contributions</title></rect><rect x="536" y="308" width="11" height="11" rx="2" fill="#9be9a8"><title>2026-03-20: 1 contributions</title></rect><rect x="536" y="322" width="11" height="11" rx="2" fill="#ebedf0"><title>2026-03-21: 0 contributions</title></rect><rect x="550" y="238" width="11" height="11" rx="2" fill="#ebedf0"><title>2026-03-22: 0 contributions</title></rect><rect x="550" y="252" width="11" height="11" rx="2" fill="#9be9a8"><title>2026-03-23: 4 contributions</title></rect><rect x="550" y="266" width="11" height="11" rx="2" fill="#40c463"><title>2026-03-24: 8 contributions</title></rect><rect x="550" y="280" width="11" height="11" rx="2" fill="#40c463"><title>2026-03-25: 11 contributions</title></rect><rect x="550" y="294" width="11" height="11" rx="2" fill="#216e39"><title>2026-03-26: 26 contributions</title></rect><rect x="550" y="308" width="11" height="11" rx="2" fill="#9be9a8"><title>2026-03-27: 4 contributions</title></rect><rect x="550" y="322" width="11" height="11" rx="2" fill="#ebedf0"><title>2026-03-28: 0 contributions</title></rect><rect x="564" y="238" width="11" height="11" rx="2" fill="#ebedf0"><title>2026-03-29: 0 contributions</title></rect><rect x="564" y="252" width="11" height="11" rx="2" fill="#40c463"><title>2026-03-30: 9 contributions</title></rect><rect x="564" y="266" width="11" height="11" rx="2" fill="#9be9a8"><title>2026-03-31: 1 contributions</title></rect><rect x="564" y="280" width="11" height="11" rx="2" fill="#40c463"><title>2026-04-01: 11 contributions</title></rect><rect x="564" y="294" width="11" height="11" rx="2" fill="#9be9a8"><title>2026-04-02: 4 contributions</title></rect><rect x="564" y="308" width="11" height="11" rx="2" fill="#ebedf0"><title>2026-04-03: 0 contributions</title></rect><rect x="564" y="322" width="11" height="11" rx="2" fill="#ebedf0"><title>2026-04-04: 0 contributions</title></rect><rect x="578" y="238" width="11" height="11" rx="2" fill="#ebedf0"><title>2026-04-05: 0 contributions</title></rect><rect x="578" y="252" width="11" height="11" rx="2" fill="#9be9a8"><title>2026-04-06: 3 contributions</title></rect><rect x="578" y="266" width="11" height="11" rx="2" fill="#ebedf0"><title>2026-04-07: 0 contributions</title></rect><rect x="578" y="280" width="11" height="11" rx="2" fill="#9be9a8"><title>2026-04-08: 1 contributions</title></rect><rect x="578" y="294" width="11" height="11" rx="2" fill="#9be9a8"><title>2026-04-09: 2 contributions</title></rect><rect x="578" y="308" width="11" height="11" rx="2" fill="#9be9a8"><title>2026-04-10: 5 contributions</title></rect><rect x="578" y="322" width="11" height="11" rx="2" fill="#ebedf0"><title>2026-04-11: 0 contributions</title></rect><rect x="592" y="238" width="11" height="11" rx="2" fill="#ebedf0"><title>2026-04-12: 0 contributions</title></rect><rect x="592" y="252" width="11" height="11" rx="2" fill="#9be9a8"><title>2026-04-13: 1 contributions</title></rect><rect x="592" y="266" width="11" height="11" rx="2" fill="#9be9a8"><title>2026-04-14: 4 contributions</title></rect><rect x="592" y="280" width="11" height="11" rx="2" fill="#9be9a8"><title>2026-04-15: 4 contributions</title></rect><rect x="592" y="294" width="11" height="11" rx="2" fill="#ebedf0"><title>2026-04-16: 0 contributions</title></rect><rect x="592" y="308" width="11" height="11" rx="2" fill="#ebedf0"><title>2026-04-17: 0 contributions</title></rect><rect x="592" y="322" width="11" height="11" rx="2" fill="#ebedf0"><title>2026-04-18: 0 contributions</title></rect><rect x="606" y="238" width="11" height="11" rx="2" fill="#ebedf0"><title>2026-04-19: 0 contributions</title></rect><rect x="606" y="252" width="11" height="11" rx="2" fill="#9be9a8"><title>2026-04-20: 5 contributions</title></rect><rect x="606" y="266" width="11" height="11" rx="2" fill="#ebedf0"><title>2026-04-21: 0 contributions</title></rect><rect x="606" y="280" width="11" height="11" rx="2" fill="#9be9a8"><title>2026-04-22: 6 contributions</title></rect><rect x="606" y="294" width="11" height="11" rx="2" fill="#ebedf0"><title>2026-04-23: 0 contributions</title></rect><rect x="606" y="308" width="11" height="11" rx="2" fill="#ebedf0"><title>2026-04-24: 0 contributions</title></rect><rect x="606" y="322" width="11" height="11" rx="2" fill="#ebedf0"><title>2026-04-25: 0 contributions</title></rect><rect x="620" y="238" width="11" height="11" rx="2" fill="#ebedf0"><title>2026-04-26: 0 contributions</title></rect><rect x="620" y="252" width="11" height="11" rx="2" fill="#9be9a8"><title>2026-04-27: 2 contributions</title></rect><rect x="620" y="266" width="11" height="11" rx="2" fill="#ebedf0"><title>2026-04-28: 0 contributions</title></rect><rect x="620" y="280" width="11" height="11" rx="2" fill="#ebedf0"><title>2026-04-29: 0 contributions</title></rect><rect x="620" y="294" width="11" height="11" rx="2" fill="#9be9a8"><title>2026-04-30: 3 contributions</title></rect><rect x="620" y="308" width="11" height="11" rx="2" fill="#ebedf0"><title>2026-05-01: 0 contributions</title></rect><rect x="620" y="322" width="11" height="11" rx="2" fill="#ebedf0"><title>2026-05-02: 0 contributions</title></rect><rect x="634" y="238" width="11" height="11" rx="2" fill="#ebedf0"><title>2026-05-03: 0 contributions</title></rect><rect x="634" y="252" width="11" height="11" rx="2" fill="#9be9a8"><title>2026-05-04: 4 contributions</title></rect><rect x="634" y="266" width="11" height="11" rx="2" fill="#9be9a8"><title>2026-05-05: 1 contributions</title></rect><rect x="634" y="280" width="11" height="11" rx="2" fill="#9be9a8"><title>2026-05-06: 2 contributions</title></rect><rect x="634" y="294" width="11" height="11" rx="2" fill="#9be9a8"><title>2026-05-07: 3 contributions</title></rect><rect x="634" y="308" width="11" height="11" rx="2" fill="#ebedf0"><title>2026-05-08: 0 contributions</title></rect><rect x="634" y="322" width="11" height="11" rx="2" fill="#ebedf0"><title>2026-05-09: 0 contributions</title></rect><rect x="648" y="238" width="11" height="11" rx="2" fill="#ebedf0"><title>2026-05-10: 0 contributions</title></rect><rect x="648" y="252" width="11" height="11" rx="2" fill="#9be9a8"><title>2026-05-11: 6 contributions</title></rect><rect x="648" y="266" width="11" height="11" rx="2" fill="#9be9a8"><title>2026-05-12: 1 contributions</title></rect><rect x="648" y="280" width="11" height="11" rx="2" fill="#9be9a8"><title>2026-05-13: 2 contributions</title></rect><rect x="648" y="294" width="11" height="11" rx="2" fill="#9be9a8"><title>2026-05-14: 1 contributions</title></rect><rect x="648" y="308" width="11" height="11" rx="2" fill="#ebedf0"><title>2026-05-15: 0 contributions</title></rect><rect x="648" y="322" width="11" height="11" rx="2" fill="#ebedf0"><title>2026-05-16: 0 contributions</title></rect><rect x="662" y="238" width="11" height="11" rx="2" fill="#ebedf0"><title>2026-05-17: 0 contributions</title></rect><rect x="662" y="252" width="11" height="11" rx="2" fill="#9be9a8"><title>2026-05-18: 2 contributions</title></rect><rect x="662" y="266" width="11" height="11" rx="2" fill="#9be9a8"><title>2026-05-19: 1 contributions</title></rect><rect x="662" y="280" width="11" height="11" rx="2" fill="#ebedf0"><title>2026-05-20: 0 contributions</title></rect><rect x="662" y="294" width="11" height="11" rx="2" fill="#ebedf0"><title>2026-05-21: 0 contributions</title></rect><rect x="662" y="308" width="11" height="11" rx="2" fill="#ebedf0"><title>2026-05-22: 0 contributions</title></rect><rect x="662" y="322" width="11" height="11" rx="2" fill="#ebedf0"><title>2026-05-23: 0 contributions</title></rect><rect x="676" y="238" width="11" height="11" rx="2" fill="#ebedf0"><title>2026-05-24: 0 contributions</title></rect><rect x="676" y="252" width="11" height="11" rx="2" fill="#9be9a8"><title>2026-05-25: 2 contributions</title></rect><rect x="676" y="266" width="11" height="11" rx="2" fill="#9be9a8"><title>2026-05-26: 1 contributions</title></rect><rect x="676" y="280" width="11" height="11" rx="2" fill="#40c463"><title>2026-05-27: 7 contributions</title></rect><rect x="676" y="294" width="11" height="11" rx="2" fill="#40c463"><title>2026-05-28: 9 contributions</title></rect><rect x="676" y="308" width="11" height="11" rx="2" fill="#9be9a8"><title>2026-05-29: 2 contributions</title></rect><rect x="676" y="322" width="11" height="11" rx="2" fill="#ebedf0"><title>2026-05-30: 0 contributions</title></rect><rect x="690" y="238" width="11" height="11" rx="2" fill="#ebedf0"><title>2026-05-31: 0 contributions</title></rect><rect x="690" y="252" width="11" height="11" rx="2" fill="#30a14e"><title>2026-06-01: 13 contributions</title></rect><rect x="690" y="266" width="11" height="11" rx="2" fill="#40c463"><title>2026-06-02: 8 contributions</title></rect><rect x="690" y="280" width="11" height="11" rx="2" fill="#9be9a8"><title>2026-06-03: 3 contributions</title></rect><rect x="690" y="294" width="11" height="11" rx="2" fill="#30a14e"><title>2026-06-04: 19 contributions</title></rect><rect x="690" y="308" width="11" height="11" rx="2" fill="#9be9a8"><title>2026-06-05: 1 contributions</title></rect><rect x="690" y="322" width="11" height="11" rx="2" fill="#9be9a8"><title>2026-06-06: 1 contributions</title></rect><rect x="704" y="238" width="11" height="11" rx="2" fill="#9be9a8"><title>2026-06-07: 1 contributions</title></rect><rect x="704" y="252" width="11" height="11" rx="2" fill="#9be9a8"><title>2026-06-08: 1 contributions</title></rect><rect x="704" y="266" width="11" height="11" rx="2" fill="#9be9a8"><title>2026-06-09: 1 contributions</title></rect><rect x="704" y="280" width="11" height="11" rx="2" fill="#9be9a8"><title>2026-06-10: 1 contributions</title></rect><rect x="704" y="294" width="11" height="11" rx="2" fill="#9be9a8"><title>2026-06-11: 1 contributions</title></rect><rect x="704" y="308" width="11" height="11" rx="2" fill="#9be9a8"><title>2026-06-12: 5 contributions</title></rect><rect x="704" y="322" width="11" height="11" rx="2" fill="#9be9a8"><title>2026-06-13: 1 contributions</title></rect><rect x="718" y="238" width="11" height="11" rx="2" fill="#9be9a8"><title>2026-06-14: 1 contributions</title></rect><rect x="718" y="252" width="11" height="11" rx="2" fill="#9be9a8"><title>2026-06-15: 1 contributions</title></rect><rect x="718" y="266" width="11" height="11" rx="2" fill="#9be9a8"><title>2026-06-16: 1 contributions</title></rect><rect x="718" y="280" width="11" height="11" rx="2" fill="#9be9a8"><title>2026-06-17: 1 contributions</title></rect><rect x="718" y="294" width="11" height="11" rx="2" fill="#9be9a8"><title>2026-06-18: 1 contributions</title></rect><rect x="718" y="308" width="11" height="11" rx="2" fill="#9be9a8"><title>2026-06-19: 1 contributions</title></rect><rect x="718" y="322" width="11" height="11" rx="2" fill="#9be9a8"><title>2026-06-20: 1 contributions</title></rect><rect x="732" y="238" width="11" height="11" rx="2" fill="#9be9a8"><title>2026-06-21: 1 contributions</title></rect><rect x="732" y="252" width="11" height="11" rx="2" fill="#9be9a8"><title>2026-06-22: 4 contributions</title></rect><rect x="732" y="266" width="11" height="11" rx="2" fill="#30a14e"><title>2026-06-23: 14 contributions</title></rect><rect x="732" y="280" width="11" height="11" rx="2" fill="#9be9a8"><title>2026-06-24: 1 contributions</title></rect><rect x="732" y="294" width="11" height="11" rx="2" fill="#9be9a8"><title>2026-06-25: 6 contributions</title></rect><rect x="732" y="308" width="11" height="11" rx="2" fill="#9be9a8"><title>2026-06-26: 2 contributions</title></rect><rect x="732" y="322" width="11" height="11" rx="2" fill="#9be9a8"><title>2026-06-27: 1 contributions</title></rect><rect x="746" y="238" width="11" height="11" rx="2" fill="#9be9a8"><title>2026-06-28: 1 contributions</title></rect><rect x="746" y="252" width="11" height="11" rx="2" fill="#9be9a8"><title>2026-06-29: 4 contributions</title></rect><rect x="746" y="266" width="11" height="11" rx="2" fill="#9be9a8"><title>2026-06-30: 4 contributions</title></rect><rect x="746" y="280" width="11" height="11" rx="2" fill="#9be9a8"><title>2026-07-01: 2 contributions</title></rect><rect x="746" y="294" width="11" height="11" rx="2" fill="#9be9a8"><title>2026-07-02: 3 contributions</title></rect><rect x="746" y="308" width="11" height="11" rx="2" fill="#9be9a8"><title>2026-07-03: 1 contributions</title></rect><rect x="746" y="322" width="11" height="11" rx="2" fill="#9be9a8"><title>2026-07-04: 1 contributions</title></rect><rect x="760" y="238" width="11" height="11" rx="2" fill="#ebedf0"><title>2026-07-05: 0 contributions</title></rect>

    <text x="32" y="361" font-size="12" fill="#6e7781">Issues: 0</text>

    <text x="640" y="361" font-size="12" fill="#6e7781">Less</text>
    <rect x="674" y="352" width="11" height="11" rx="2" fill="#ebedf0"/>
    <rect x="691" y="352" width="11" height="11" rx="2" fill="#9be9a8"/>
    <rect x="708" y="352" width="11" height="11" rx="2" fill="#40c463"/>
    <rect x="725" y="352" width="11" height="11" rx="2" fill="#30a14e"/>
    <rect x="742" y="352" width="11" height="11" rx="2" fill="#216e39"/>
    <text x="762" y="361" font-size="12" fill="#6e7781">More</text>

    <text x="32" y="378" font-size="11" fill="#8c959f">Last updated: 2026-07-05 10:20 UTC</text>
  </g>
</svg>
